HIERARCHY
ROOT ui
{
	 OFFSET 0 0 0
	 CHANNELS 3 XPosition YPosition Z Position
	 EndSite
	 {
	 OFFSET 0 -1 0
	 }
}
ROOT li
{
	 OFFSET 0 0 0
	 CHANNELS 3 XPosition YPosition Z Position
	 EndSite
	 {
	 OFFSET 0 -1 0
	 }
}
ROOT ul
{
	 OFFSET 0 0 0
	 CHANNELS 3 XPosition YPosition Z Position
	 EndSite
	 {
	 OFFSET 0 -1 0
	 }
}
ROOT ll
{
	 OFFSET 0 0 0
	 CHANNELS 3 XPosition YPosition Z Position
	 EndSite
	 {
	 OFFSET 0 -1 0
	 }
}
ROOT tt
{
	 OFFSET 0 0 0
	 CHANNELS 3 XPosition YPosition Z Position
	 EndSite
	 {
	 OFFSET 0 -1 0
	 }
}
ROOT tb
{
	 OFFSET 0 0 0
	 CHANNELS 3 XPosition YPosition Z Position
	 EndSite
	 {
	 OFFSET 0 -1 0
	 }
}
ROOT td
{
	 OFFSET 0 0 0
	 CHANNELS 3 XPosition YPosition Z Position
	 EndSite
	 {
	 OFFSET 0 -1 0
	 }
}
ROOT v
{
	 OFFSET 0 0 0
	 CHANNELS 3 XPosition YPosition Z Position
	 EndSite
	 {
	 OFFSET 0 -1 0
	 }
}
ROOT bn
{
	 OFFSET 0 0 0
	 CHANNELS 3 XPosition YPosition Z Position
	 EndSite
	 {
	 OFFSET 0 -1 0
	 }
}
MOTION
Frames: 16
Frame Time: 0.002
-0.005542405128479004	-0.001948891043663025	0		0.4499408264160156	-2.414779296875	0		-1.1041697998046875	0.02836140823364258	0		-0.8212098999023437	-2.465294189453125	0		1.459598388671875	-0.657139892578125	0		3.1084580078125	0.07751091003417969	0		4.4944580078125	0.17291078186035155	0		5.5778291015625	0.12888011169433594	0		-0.2337167205810547	5.8882744140625	0		
-0.004231274127960205	-0.0020670320987701417	0		0.42436502075195315	-2.4113896484375	0		-1.102859375	0.028219100952148437	0		-0.7859426879882813	-2.47105712890625	0		1.466812255859375	-0.6633355712890625	0		3.14076220703125	0.07688899230957032	0		4.49576513671875	0.17289163208007813	0		5.5791376953125	0.12888478088378907	0		-0.23253515625	5.8881513671875	0		
-0.006023383140563965	-0.005134200096130371	0		0.4277161865234375	-2.40954052734375	0		-1.101597412109375	0.028072423934936523	0		-0.844635009765625	-2.471090576171875	0		1.4711439208984376	-0.660482666015625	0		3.142023193359375	0.07683379364013672	0		4.50287548828125	0.16475636291503906	0		5.5803974609375	0.12888215637207032	0		-0.3647640380859375	5.86947900390625	0		
0.004371129035949707	0.0045751771926879885	0		0.431013427734375	-2.407692138671875	0		-1.09040625	0.026742979049682616	0		-0.8141937866210938	-2.4617666015625	0		1.4774971923828124	-0.6536691284179688	0		3.148490478515625	0.09068015289306641	0		4.512322265625	0.17757530212402345	0		5.5757548828125	0.136981689453125	0		-0.230307373046875	5.8878955078125	0		
0.005529982089996338	0.004457118988037109	0		0.4301812438964844	-2.409764892578125	0		-1.1741966552734375	0.030167924880981446	0		-0.8530184936523437	-2.463163818359375	0		1.4697252197265624	-0.6505942993164062	0		3.148482177734375	0.08164124298095703	0		4.5076259765625	0.1856511993408203	0		5.595908203125	0.13661898803710937	0		-0.22925932312011718	5.88777294921875	0		
0.006633706092834472	0.00434858512878418	0		0.4572674865722656	-2.413343505859375	0		-1.0981243896484374	0.027660345077514647	0		-0.781012451171875	-2.471591064453125	0		1.4657125244140625	-0.657584228515625	0		3.175708740234375	0.08810834503173828	0		4.5063408203125	0.1646614227294922	0		5.59700927734375	0.13660784912109375	0		-0.22825810241699218	5.88766064453125	0		
-0.027498468399047852	-0.005102138996124267	0		0.40441632080078127	-2.409440185546875	0		-1.091172119140625	0.022437929153442383	0		-0.8518229370117187	-2.465377685546875	0		1.4726575927734376	-0.6637650756835938	0		3.141667236328125	0.08370796203613282	0		4.51352978515625	0.17252731323242188	0		5.59390673828125	0.12867771911621093	0		-0.22730754089355468	5.8875615234375	0		
0.008664264678955078	0.004174740791320801	0		0.4432658996582031	-2.419208740234375	0		-1.0901873779296876	0.022342849731445312	0		-0.8389130859375	-2.471688232421875	0		1.4787801513671874	-0.6569147338867187	0		3.138559814453125	0.07875051879882812	0		4.516603515625	0.1774786376953125	0		5.59070703125	0.11875785064697265	0		-0.22542919921875	5.8864609375	0		
-0.012353382110595702	0.007518672943115234	0		0.4135583801269531	-2.4006962890625	0		-1.0851912841796876	0.02619462203979492	0		-0.7959071655273438	-2.469529541015625	0		1.4827674560546875	-0.6540088500976563	0		3.16736767578125	0.07222247314453124	0		4.52237744140625	0.1693917694091797	0		5.6057734375	0.12651815032958985	0		-0.22360556030273437	5.885380859375	0		
0.010450900077819824	0.00407878589630127	0		0.4612242126464844	-2.41358740234375	0		-1.09430859375	0.027326786041259765	0		-0.8109550170898437	-2.4662841796875	0		1.4805843505859375	-0.6569715576171875	0		3.1526357421875	0.09451520538330078	0		4.5183857421875	0.17750253295898438	0		5.60081884765625	0.13666070556640625	0		-0.22379896545410155	5.88635888671875	0		
-0.013741268157958984	0.004522796154022217	0		0.43611505126953126	-2.410120361328125	0		-1.0935052490234376	0.027300226211547853	0		-0.812177490234375	-2.469270263671875	0		1.4903575439453125	-0.6591329345703125	0		3.150109130859375	0.0765956039428711	0		4.51095068359375	0.16468942260742186	0		5.58847705078125	0.12895079040527344	0		-0.22404470825195313	5.8873603515625	0		
0.002819075107574463	-0.005759243011474609	0		0.4597537841796875	-2.4175263671875	0		-1.0868519287109375	0.022189353942871092	0		-0.8134424438476563	-2.471232421875	0		1.4770211181640625	-0.663851318359375	0		3.1549453125	0.08156298065185547	0		4.51169482421875	0.16474473571777343	0		5.59822021484375	0.12885238647460937	0		-0.22335871887207032	5.88736767578125	0		
-0.012304137229919434	0.004563819885253906	0		0.41163873291015624	-2.407595458984375	0		-1.0861610107421875	0.022211923599243164	0		-0.810693603515625	-2.469244384765625	0		1.4835889892578125	-0.6709151000976562	0		3.151544921875	0.07669639587402344	0		4.512384765625	0.16481591796875	0		5.5799130859375	0.1292805938720703	0		-0.2217371826171875	5.88637939453125	0		
0.03930836486816406	0.002685403108596802	0		0.46623080444335935	-2.411525390625	0		-1.08735693359375	0.031293642044067385	0		-0.8340880737304688	-2.471756591796875	0		1.48654345703125	-0.65389013671875	0		3.145550537109375	0.09689695739746093	0		4.52125927734375	0.17775273132324218	0		5.59951220703125	0.127026123046875	0		-0.22113844299316407	5.88643212890625	0		
-0.01107515811920166	0.004693121910095215	0		0.4388550109863281	-2.409936279296875	0		-1.09083984375	0.02743752861022949	0		-0.7734783325195312	-2.4717822265625	0		1.5009876708984375	-0.6620623168945312	0		3.16273486328125	0.0746801986694336	0		4.51361181640625	0.1649981231689453	0		5.59528466796875	0.1372179870605469	0		-0.22057696533203125	5.88650634765625	0		
0.005279129981994629	-0.005502895832061767	0		0.4643046875	-2.415296630859375	0		-1.090300048828125	0.027529857635498048	0		-0.8448294677734375	-2.4653740234375	0		1.4825504150390625	-0.660616943359375	0		3.177491455078125	0.08652430725097657	0		4.50829833984375	0.1732115783691406	0		5.60067724609375	0.12923550415039062	0		-0.2200506134033203	5.8866005859375	0		
